<svg id="Capa_1" data-name="Capa 1" xmlns="http://www.w3.org/2000/svg" viewBox="0 0 32 32"><defs><style>.cls-1{fill:#73c914;}.cls-2{fill:#90db2e;}.cls-3{fill:#fff;}</style></defs><title>Excel</title><path class="cls-1" d="M19.87,1.19H6.47a2.11,2.11,0,0,0-2.11,2.1V28.71a2.11,2.11,0,0,0,2.11,2.1H25.53a2.11,2.11,0,0,0,2.11-2.1V9.05Z"/><path class="cls-2" d="M19.89,1.19V6.93A2.1,2.1,0,0,0,22,9h5.65Z"/><path class="cls-3" d="M17.3,14.64h1.1v0l-1.8,2.57,1.85,2.65v0H17.33L16,18l-1.36,2H13.5v0l1.84-2.65-1.79-2.57v0h1.1l1.33,2Z"/></svg>