<svg id="Capa_1" data-name="Capa 1" xmlns="http://www.w3.org/2000/svg" viewBox="0 0 32 32"><defs><style>.cls-1{fill:#c9003d;}.cls-2{fill:#e14262;}.cls-3{fill:#fff;}</style></defs><title>PDF</title><path class="cls-1" d="M11.33,15.59H9.83v1.87h1.5A.94.94,0,1,0,11.33,15.59Z"/><path class="cls-1" d="M22,9a2.11,2.11,0,0,1-2.1-2.11V1.21l0,0H6.47a2.11,2.11,0,0,0-2.11,2.1V28.71a2.11,2.11,0,0,0,2.11,2.1H25.53a2.11,2.11,0,0,0,2.11-2.1V9.05H22ZM11.33,18.38H9.83v1.56h-1v-5.3h2.5A1.88,1.88,0,1,1,11.33,18.38ZM16,19.94H13.88v-5.3H16a2.51,2.51,0,0,1,2.65,2.6A2.52,2.52,0,0,1,16,19.94Zm7.27-4.33H20.42v1.45h2.65V18H20.42v2h-1V14.65h3.81Z"/><path class="cls-1" d="M16,15.59H14.87V19H16a1.57,1.57,0,0,0,1.65-1.74A1.57,1.57,0,0,0,16,15.59Z"/><path class="cls-2" d="M22,9h5.65L19.89,1.19V6.93A2.11,2.11,0,0,0,22,9Z"/><path class="cls-3" d="M11.33,14.63H8.83v5.3h1V18.38h1.5A1.88,1.88,0,1,0,11.33,14.63Zm0,2.83H9.83V15.59h1.5A.94.94,0,1,1,11.33,17.46Z"/><path class="cls-3" d="M16,14.64H13.88v5.3H16a2.52,2.52,0,0,0,2.65-2.7A2.51,2.51,0,0,0,16,14.64ZM16,19H14.87V15.59H16a1.57,1.57,0,0,1,1.65,1.65A1.57,1.57,0,0,1,16,19Z"/><polygon class="cls-3" points="19.42 19.94 20.42 19.94 20.42 17.98 23.07 17.98 23.07 17.05 20.42 17.05 20.42 15.61 23.23 15.61 23.23 14.65 19.42 14.65 19.42 19.94"/></svg>