<svg id="Capa_1" data-name="Capa 1" xmlns="http://www.w3.org/2000/svg" viewBox="0 0 32 32"><defs><style>.cls-1{fill:#003dc9;}.cls-2{fill:#2f61c7;}.cls-3{fill:#fff;}</style></defs><title>Word</title><path class="cls-1" d="M19.87,1.19H6.47a2.11,2.11,0,0,0-2.11,2.1V28.71a2.11,2.11,0,0,0,2.11,2.1H25.53a2.11,2.11,0,0,0,2.11-2.1V9.05Z"/><path class="cls-2" d="M19.89,1.19V6.93A2.1,2.1,0,0,0,22,9h5.65Z"/><path class="cls-3" d="M18,19.94h-.84l-.66-1.67-.56-1.67-.55,1.69-.65,1.65h-.85l-1.94-5.3H13l1.25,3.82,1.29-3.82h.65l1.32,3.82,1.21-3.82h1.12Z"/></svg>